# xmcd
#
# Track frame offsets:
#	150
#	23387
#	55425
#
# Disc length: 1190 seconds
#
# Revision: 0
# Processed by: cddbd v1.4PL0 Copyright (c) Steve Scherf et al.
# Submitted via: EasyCDDAExtractor 5.0.0.0
#
DISCID=1a04a403
DTITLE=Dead Or Alive - Unhappy Birthday Japanese CD 3 Inch Single
DYEAR=1900
DGENRE=
TTITLE0=Unhappy Birthday(Radio Edit)
TTITLE1=Total Stranger(Unhappy Birthday Japanese CD Single Vesion)
TTITLE2=Unhappy Birthday(Ninja Billy Mix)
EXTD=
EXTT0=
EXTT1=
EXTT2=
PLAYORDER=
